<?xml version="1.0" encoding="UTF-8"?>
<svg id="b" data-name="Layer 2" xmlns="http://www.w3.org/2000/svg" width="84.338" height="24" viewBox="0 0 84.338 24">
  <g id="c" data-name="Layer 1">
    <g>
      <g>
        <path d="M33.393,19.265c-1.596,0-2.92-.356-3.972-1.069-1.053-.713-1.697-1.791-1.935-3.233l2.444-.586c.136.696.365,1.248.687,1.655.322.407.725.696,1.209.866.484.17,1.006.255,1.566.255.831,0,1.472-.161,1.922-.484.449-.322.675-.738.675-1.248s-.213-.882-.637-1.12c-.424-.238-1.053-.433-1.884-.586l-.866-.153c-.849-.153-1.621-.373-2.317-.662-.696-.288-1.248-.687-1.655-1.197-.407-.509-.611-1.163-.611-1.96,0-1.188.441-2.109,1.324-2.762.882-.653,2.054-.98,3.513-.98,1.409,0,2.567.318,3.475.955.908.636,1.498,1.498,1.769,2.584l-2.444.687c-.153-.764-.475-1.302-.968-1.617-.492-.314-1.103-.471-1.833-.471-.713,0-1.273.132-1.68.395-.408.263-.611.632-.611,1.108,0,.509.199.883.598,1.12.399.238.938.416,1.617.535l.891.153c.899.153,1.722.365,2.47.637.747.272,1.337.662,1.769,1.171s.649,1.188.649,2.037c0,1.256-.467,2.232-1.4,2.928-.934.696-2.189,1.044-3.768,1.044Z" fill="#ffb866"/>
        <path d="M45.41,19.265c-.9,0-1.702-.153-2.406-.458-.705-.306-1.265-.755-1.68-1.349-.416-.594-.624-1.315-.624-2.164,0-.866.208-1.582.624-2.151.416-.568.984-.997,1.706-1.286.721-.288,1.54-.433,2.457-.433h3.819v-.815c0-.73-.221-1.315-.662-1.757-.442-.441-1.12-.662-2.037-.662-.9,0-1.587.212-2.062.636-.476.425-.789.976-.942,1.655l-2.444-.789c.204-.679.53-1.294.98-1.846.45-.551,1.048-.997,1.795-1.337.747-.339,1.646-.509,2.699-.509,1.629,0,2.911.416,3.844,1.248.933.832,1.4,2.011,1.4,3.539v5.168c0,.509.237.764.713.764h1.069v2.189h-1.96c-.594,0-1.078-.153-1.451-.458-.374-.306-.56-.721-.56-1.248v-.076h-.382c-.136.255-.34.552-.611.891-.272.34-.671.633-1.197.878-.526.246-1.222.369-2.088.369ZM45.792,17.101c1.052,0,1.901-.301,2.546-.904.645-.602.967-1.43.967-2.482v-.254h-3.666c-.696,0-1.256.149-1.68.445-.424.297-.637.734-.637,1.311s.22,1.036.662,1.375c.441.34,1.044.509,1.808.509Z" fill="#ffb866"/>
        <path d="M55.288,12.696v-.382c0-1.324.267-2.452.802-3.386.535-.933,1.243-1.655,2.126-2.164.882-.509,1.85-.764,2.902-.764,1.222,0,2.16.229,2.813.687.653.458,1.133.951,1.439,1.477h.407v-1.808h2.546v15.123c0,.764-.225,1.375-.675,1.833-.45.458-1.065.687-1.846.687h-8.453v-2.291h7.638c.492,0,.738-.255.738-.764v-3.997h-.407c-.187.306-.45.62-.789.942-.34.323-.785.586-1.337.789-.552.204-1.244.306-2.075.306-1.053,0-2.024-.25-2.915-.751-.891-.501-1.6-1.222-2.126-2.164-.526-.942-.789-2.066-.789-3.373ZM61.831,16.693c1.137,0,2.075-.361,2.813-1.082.739-.721,1.108-1.718,1.108-2.992v-.229c0-1.307-.365-2.312-1.095-3.017-.73-.704-1.672-1.057-2.826-1.057-1.12,0-2.049.353-2.788,1.057-.738.705-1.108,1.71-1.108,3.017v.229c0,1.273.369,2.27,1.108,2.992.738.722,1.668,1.082,2.788,1.082Z" fill="#ffb866"/>
        <path d="M76.089,19.265c-.9,0-1.702-.153-2.406-.458-.705-.306-1.265-.755-1.68-1.349-.416-.594-.624-1.315-.624-2.164,0-.866.208-1.582.624-2.151.416-.568.984-.997,1.706-1.286.721-.288,1.54-.433,2.457-.433h3.819v-.815c0-.73-.221-1.315-.662-1.757-.442-.441-1.12-.662-2.037-.662-.9,0-1.587.212-2.062.636-.476.425-.789.976-.942,1.655l-2.444-.789c.204-.679.53-1.294.98-1.846.45-.551,1.048-.997,1.795-1.337.747-.339,1.646-.509,2.699-.509,1.629,0,2.911.416,3.844,1.248.933.832,1.4,2.011,1.4,3.539v5.168c0,.509.237.764.713.764h1.069v2.189h-1.96c-.594,0-1.078-.153-1.451-.458-.374-.306-.56-.721-.56-1.248v-.076h-.382c-.136.255-.34.552-.611.891-.272.34-.671.633-1.197.878-.526.246-1.222.369-2.088.369ZM76.47,17.101c1.052,0,1.901-.301,2.546-.904.645-.602.967-1.43.967-2.482v-.254h-3.666c-.696,0-1.256.149-1.68.445-.424.297-.637.734-.637,1.311s.22,1.036.662,1.375c.441.34,1.044.509,1.808.509Z" fill="#ffb866"/>
      </g>
      <path d="M12.571,0C7.828,0,3.835,3.211,2.647,7.578L0,17.143h1.868c.083,0,.164.033.223.092l.103.103c.059.059.092.139.092.223v4.154h4.571v2.286h2.286v-4.571h-4.571v-2.286h-1.868c-.083,0-.164-.033-.223-.092-.081-.081-.112-.199-.08-.309l2.485-8.684h0c.965-3.334,4.04-5.772,7.685-5.772,4.418,0,8,3.582,8,8v11.429h-6.857v-6.855h1.796c.13,0,.255.052.347.144h0c.092.092.144.217.144.347v1.796h2.286v-2.286h-1.796c-.13,0-.255-.052-.347-.144-.092-.092-.144-.217-.144-.347v-1.796h-2.286v-3.298h1.796c.13,0,.255.052.347.144.092.092.144.217.144.347v1.796h2.286v-2.286h-1.796c-.13,0-.255-.052-.347-.144-.092-.092-.144-.217-.144-.347v-1.796h-2.286v-2.286h-2.286v2.286h-2.286v1.796c0,.13-.052.254-.144.346-.092.092-.216.143-.346.143-.508,0-1.796,0-1.796,0v2.286h2.286v-1.796c0-.13.052-.255.144-.347.092-.092.217-.144.347-.144h1.796v3.298h-2.286v1.796c0,.13-.052.255-.144.347s-.217.144-.347.144h-1.796v2.286h2.286v-1.796c0-.13.052-.255.144-.347s.217-.144.347-.144h1.796v9.141h11.429v-13.714C22.857,4.605,18.252,0,12.571,0Z" fill="#ffb866"/>
    </g>
  </g>
</svg>